<svg width="18" height="18" viewBox="0 0 18 18" fill="none" xmlns="http://www.w3.org/2000/svg">
<path d="M12.75 4.5C12.525 4.5 12.375 4.575 12.225 4.725L4.725 12.225C4.425 12.525 4.425 12.975 4.725 13.275C5.025 13.575 5.475 13.575 5.775 13.275L13.275 5.775C13.575 5.475 13.575 5.025 13.275 4.725C13.125 4.575 12.975 4.5 12.75 4.5Z" fill="#077CEA"/>
<path d="M12.75 4.5H6C5.55 4.5 5.25 4.8 5.25 5.25C5.25 5.7 5.55 6 6 6H12V12C12 12.45 12.3 12.75 12.75 12.75C13.2 12.75 13.5 12.45 13.5 12V5.25C13.5 4.8 13.2 4.5 12.75 4.5Z" fill="#077CEA"/>
</svg>
