<svg width="16" height="15" viewBox="0 0 16 15" fill="none" xmlns="http://www.w3.org/2000/svg">
<g clip-path="url(#clip0_1_105)">
<path d="M12.6077 1.01074H2.41185C1.34583 1.01074 0.478516 1.87789 0.478516 2.94408V9.18371C0.478516 10.2475 1.34206 11.1133 2.40499 11.117V13.9485L6.47413 11.117H12.6077C13.6737 11.117 14.541 10.2497 14.541 9.18371V2.94408C14.541 1.87789 13.6737 1.01074 12.6077 1.01074ZM13.717 9.18371C13.717 9.79534 13.2194 10.2931 12.6077 10.2931H6.21561L3.22896 12.3714V10.2931H2.41185C1.80014 10.2931 1.30249 9.79534 1.30249 9.18371V2.94408C1.30249 2.33228 1.80014 1.83472 2.41185 1.83472H12.6077C13.2194 1.83472 13.717 2.33228 13.717 2.94408V9.18371Z" fill="#077CEA"/>
<path d="M4.24219 3.92188H10.7772V4.74585H4.24219V3.92188Z" fill="#077CEA"/>
<path d="M4.24219 5.67969H10.7772V6.50366H4.24219V5.67969Z" fill="#077CEA"/>
<path d="M4.24219 7.4375H10.7772V8.26147H4.24219V7.4375Z" fill="#077CEA"/>
</g>
<defs>
<clipPath id="clip0_1_105">
<rect width="15" height="15" fill="white" transform="translate(0.0175781)"/>
</clipPath>
</defs>
</svg>
